<svg width="18" height="18" viewBox="0 0 18 18" fill="none" xmlns="http://www.w3.org/2000/svg">
<path fill-rule="evenodd" clip-rule="evenodd" d="M7.8 12.7167C8.13137 12.7167 8.4 12.9945 8.4 13.337V15.7661C11.6985 13.7742 13.683 12.3651 14.8799 11.1348C15.5745 10.4208 15.9565 9.81197 16.1784 9.2314C16.4015 8.64763 16.5 7.99539 16.5 7.13377C16.5 4.05039 14.0823 1.55082 11.1 1.55082H6.9C3.91766 1.55082 1.5 4.05039 1.5 7.13377C1.5 10.2171 3.91766 12.7167 6.9 12.7167H7.8ZM8.4 17.5588C16.3969 12.8007 18 10.8519 18 7.13377C18 3.1939 14.9108 0 11.1 0H6.9C3.08924 0 0 3.1939 0 7.13377C0 11.0736 3.08924 14.2675 6.9 14.2675V17.3799C6.9 17.8544 7.39435 18.1531 7.79316 17.9181C7.99942 17.7966 8.20168 17.6768 8.4 17.5588Z" fill="#687684"/>
</svg>
