<svg width="18" height="18" viewBox="0 0 18 18" fill="none" xmlns="http://www.w3.org/2000/svg">
<path fill-rule="evenodd" clip-rule="evenodd" d="M3.96119 0.150396C5.05123 -0.141566 6.2019 -0.00504681 7.20137 0.530358L7.61327 0.751009C8.11061 1.01743 8.54778 1.38159 8.90511 1.81817C8.95514 1.8793 9.04486 1.8793 9.09489 1.81817C9.45222 1.38159 9.88938 1.01743 10.3867 0.751009L10.7986 0.530358C11.7981 -0.00504681 12.9488 -0.141566 14.0388 0.150396C15.0863 0.430973 16.0006 1.08628 16.6352 1.99281L16.8664 2.32305C17.6047 3.37766 18 4.65415 18 5.96096V6.32979C18 6.91456 17.9331 7.49738 17.8005 8.06532L17.7199 8.41077C17.4167 9.71042 16.8734 10.9347 16.1199 12.011L15.6502 12.6819C15.2726 13.2214 14.8595 13.7318 14.4138 14.2093L13.9375 14.7196C12.7946 15.9441 11.473 16.9651 10.0228 17.742C9.38063 18.086 8.61937 18.086 7.97717 17.742C6.52697 16.9651 5.20543 15.9441 4.06253 14.7196L3.58619 14.2093C3.14051 13.7318 2.72737 13.2214 2.34976 12.6819L1.8801 12.011C1.12661 10.9347 0.583331 9.71042 0.280066 8.41077L0.199456 8.06532C0.0669301 7.49738 0 6.91456 0 6.32979V5.96096C0 4.65415 0.395326 3.37766 1.13358 2.32305L1.36476 1.99281C1.99936 1.08628 2.91366 0.430973 3.96119 0.150396ZM6.50467 1.83091C5.83199 1.47057 5.06658 1.38174 4.34292 1.57557C3.64544 1.76238 3.01808 2.20376 2.57345 2.83893L2.34227 3.16917C1.78202 3.96949 1.47541 4.94911 1.47541 5.96096V6.32979C1.47541 6.80213 1.52949 7.27244 1.63627 7.73005L1.71688 8.0755C1.97826 9.19565 2.44542 10.2459 3.08879 11.1649L3.55845 11.8358C3.89687 12.3193 4.26661 12.776 4.66478 13.2025L5.14111 13.7129C6.17607 14.8217 7.36926 15.7426 8.67387 16.4414C8.88086 16.5523 9.11914 16.5523 9.32614 16.4414C10.6307 15.7426 11.8239 14.8217 12.8589 13.7129L13.3352 13.2025C13.7334 12.776 14.1031 12.3193 14.4416 11.8358L14.9112 11.1649C15.5546 10.2459 16.0217 9.19565 16.2831 8.0755L16.3637 7.73005C16.4705 7.27244 16.5246 6.80213 16.5246 6.32979V5.96096C16.5246 4.94911 16.218 3.96949 15.6577 3.16917L15.4266 2.83893C14.9819 2.20376 14.3546 1.76238 13.6571 1.57557C12.9334 1.38174 12.168 1.47057 11.4953 1.83091L11.0834 2.05157C10.5508 2.33691 10.1091 2.80519 9.83374 3.39515C9.34199 4.44885 8.65485 4.44208 8.16626 3.39515C7.89093 2.80519 7.44924 2.33691 6.91657 2.05157L6.50467 1.83091Z" fill="#687684"/>
</svg>
