<svg width="22" height="15" viewBox="0 0 22 15" fill="none" xmlns="http://www.w3.org/2000/svg">
<path d="M4.2813 0.169256C4.04097 -0.056419 3.65133 -0.0564187 3.41101 0.169257L0.225302 3.1608C-0.0751008 3.4429 -0.0751008 3.90026 0.225302 4.18236C0.525706 4.46445 1.01276 4.46445 1.31316 4.18236L3.07692 2.52609V11.184C3.07692 13.1787 4.7989 14.7957 6.92308 14.7957H11.8462C12.271 14.7957 12.6154 14.4723 12.6154 14.0734C12.6154 13.6744 12.271 13.351 11.8462 13.351H6.92308C5.64857 13.351 4.61538 12.3808 4.61538 11.184V2.52609L6.37915 4.18236C6.67955 4.46445 7.1666 4.46445 7.46701 4.18236C7.76741 3.90026 7.76741 3.4429 7.46701 3.1608L4.2813 0.169256Z" fill="#687684"/>
<path d="M17.7187 14.8307C17.959 15.0564 18.3487 15.0564 18.589 14.8307L21.7747 11.8392C22.0751 11.5571 22.0751 11.0997 21.7747 10.8176C21.4743 10.5355 20.9872 10.5355 20.6868 10.8176L18.9231 12.4739V3.81601C18.9231 1.8213 17.2011 0.204267 15.0769 0.204267H10.1538C9.72901 0.204267 9.38462 0.527673 9.38462 0.926615C9.38462 1.32556 9.72901 1.64896 10.1538 1.64896H15.0769C16.3514 1.64896 17.3846 2.61918 17.3846 3.81601V12.4739L15.6209 10.8176C15.3204 10.5355 14.8334 10.5355 14.533 10.8176C14.2326 11.0997 14.2326 11.5571 14.533 11.8392L17.7187 14.8307Z" fill="#687684"/>
</svg>
