<svg width="18" height="18" viewBox="0 0 18 18" fill="none" xmlns="http://www.w3.org/2000/svg">
<path fill-rule="evenodd" clip-rule="evenodd" d="M8.58269 0.178089C8.81316 -0.059363 9.18684 -0.0593633 9.41731 0.178089L13.6528 4.54182C13.9409 4.83864 13.9409 5.31987 13.6528 5.61669C13.3647 5.9135 12.8976 5.9135 12.6095 5.61669L9.73771 2.65792V11.7676C9.73771 12.1874 9.40742 12.5277 9 12.5277C8.59258 12.5277 8.26229 12.1874 8.26229 11.7676V2.65792L5.39049 5.61669C5.1024 5.9135 4.63531 5.9135 4.34722 5.61669C4.05912 5.31987 4.05912 4.83864 4.34722 4.54182L8.58269 0.178089ZM0.737705 9.79153C1.14513 9.79153 1.47541 10.1318 1.47541 10.5516V15.4159C1.47541 16.0035 1.9378 16.4799 2.5082 16.4799H15.4918C16.0622 16.4799 16.5246 16.0035 16.5246 15.4159V10.5516C16.5246 10.1318 16.8549 9.79153 17.2623 9.79153C17.6697 9.79153 18 10.1318 18 10.5516V15.4159C18 16.843 16.877 18 15.4918 18H2.5082C1.12296 18 0 16.843 0 15.4159V10.5516C0 10.1318 0.330282 9.79153 0.737705 9.79153Z" fill="#687684"/>
</svg>
